<?xml version="1.0" encoding="UTF-8"?>
<svg id="Layer_1" xmlns="http://www.w3.org/2000/svg" xmlns:xlink="http://www.w3.org/1999/xlink" version="1.1" viewBox="0 0 984.48 463.04">
  <!-- Generator: Adobe Illustrator 29.8.6, SVG Export Plug-In . SVG Version: 2.1.1 Build 1)  -->
  <defs>
    <style>
      .st0 {
        fill: none;
      }

      .st1 {
        fill: #d42029;
      }

      .st2 {
        clip-path: url(#clippath);
      }
    </style>
    <clipPath id="clippath">
      <polygon class="st0" points="220.52 67.43 167.97 144.4 220.48 160.62 220.52 67.43"/>
    </clipPath>
  </defs>
  <path class="st1" d="M843.88,434.09H140.61c-34.57,0-67.15-13.55-91.74-38.14-24.6-24.6-38.14-57.18-38.14-91.74V54.69c0-7.67,6.21-13.89,13.89-13.89h819.25c34.57,0,67.15,13.55,91.74,38.14,24.6,24.6,38.14,57.18,38.14,91.74v133.53c0,34.57-13.55,67.15-38.14,91.74-24.6,24.6-57.18,38.14-91.74,38.14h.01ZM43.54,68.57c-2.78,0-5.03,2.25-5.03,5.03v230.6c0,27.14,10.66,52.75,30,72.1,19.35,19.35,44.95,30,72.1,30h703.27c27.14,0,52.75-10.66,72.1-30,19.35-19.35,30-44.95,30-72.1v-133.53c0-27.14-10.66-52.75-30-72.1-19.35-19.35-44.95-30-72.1-30H43.54Z"/>
  <path class="st1" d="M603.53,350.49c-2.05-3.55-5.4-3.55-7.45,0l-15.31,26.52c-2.05,3.55-.37,6.45,3.72,6.45h30.62c4.1,0,5.77-2.9,3.72-6.45l-15.31-26.52h.01Z"/>
  <path class="st1" d="M256.71,217.45c-1.3-44.16-38.17-78.97-82.35-78.97h-78.4c-9.25,0-16.75,7.5-16.75,16.75v193.09c0,8.73,6.53,16.29,15.23,17.06,9.94.88,18.27-6.93,18.27-16.68v-171.32c0-2.98,2.42-5.4,5.4-5.4h56.49c25.51,0,47.78,20.83,48.62,46.32.75,22.74-14.34,42.64-36.21,48.11-1.79.41-3.55,1.13-5.2,2.17-6.01,3.78-9,11.13-7.33,18.03.59,2.43,1.66,4.6,3.09,6.43l48.53,65.26c5.21,7.01,14.96,9.18,22.4,4.6,8.5-5.23,10.53-16.46,4.71-24.29l-36.21-48.69h0c24.87-14.76,40.6-42.11,39.7-72.48h.01Z"/>
  <path class="st1" d="M389.42,171.99c21.36,0,41.45,8.32,56.56,23.43,6.54,6.54,17.15,6.54,23.69,0s6.54-17.15,0-23.69c-21.43-21.44-49.93-33.24-80.25-33.24-62.58,0-113.49,50.91-113.49,113.48s50.91,113.49,113.49,113.49c30.31,0,58.81-11.8,80.25-33.24,6.54-6.54,6.54-17.15,0-23.69s-17.15-6.54-23.69,0c-15.11,15.11-35.19,23.43-56.56,23.43-44.1,0-79.98-35.88-79.98-79.98s35.88-79.98,79.98-79.98h0Z"/>
  <path class="st1" d="M898.97,272.28h0c-4.12-7.31-9.67-13.39-16.51-18.07-6.56-4.48-14.14-8.08-22.53-10.7-7.97-2.49-16.34-4.68-24.89-6.51-8.42-1.8-16.74-3.52-24.74-5.11-7.67-1.52-14.78-3.52-21.14-5.94-6-2.28-11.08-5.2-15.12-8.67-3.54-3.05-5.75-7.09-6.75-12.36-.85-4.28-.6-8.45.77-12.77,1.36-4.28,3.9-8.29,7.55-11.9,3.74-3.69,8.97-6.79,15.53-9.21,6.72-2.47,15.24-3.72,25.34-3.72,6.57,0,13.03.79,19.2,2.36,5.95,1.51,11.31,3.88,15.92,7.03,4.38,3.01,7.9,6.94,10.45,11.68,2.53,4.73,3.82,10.51,3.82,17.18s4.45,16.41,16.66,16.41c6.08,0,9.76-2.52,11.77-4.64,4.33-4.55,4.39-10.7,4.36-11.87-.01-9.12-1.76-17.81-5.18-25.84-3.49-8.17-8.78-15.44-15.72-21.6-6.88-6.09-15.57-10.93-25.85-14.4-10.13-3.41-22.04-5.14-35.42-5.14s-24.95,1.62-35.15,4.82c-10.32,3.23-19.08,7.69-26.04,13.24-7.07,5.64-12.51,12.26-16.15,19.66-3.65,7.43-5.5,15.2-5.5,23.11,0,11.12,2.31,20.54,6.88,28,4.45,7.28,10.32,13.33,17.46,17.96,6.86,4.46,14.8,8.05,23.6,10.65,8.39,2.49,17.12,4.68,25.95,6.5,8.55,1.77,17.06,3.61,25.31,5.49,7.78,1.78,14.72,4.14,20.65,7.03,5.53,2.7,10.06,6.18,13.44,10.36,3.09,3.81,4.59,8.83,4.59,15.35,0,4.79-.94,9.39-2.79,13.68-1.8,4.18-4.66,7.93-8.5,11.15-3.95,3.32-9.25,6.02-15.74,8.02-6.7,2.07-14.85,3.12-24.24,3.12-8.08,0-15.74-.85-22.75-2.52-6.76-1.61-12.76-4.2-17.86-7.71-4.97-3.42-9.1-7.94-12.28-13.43-3.16-5.45-5.15-12.27-5.91-20.21-.02-1.81-.42-8.09-4.87-12.74-2.97-3.11-7.07-4.79-11.87-4.87-5.87-.08-9.54,2.36-11.57,4.46-4.83,4.97-4.86,12.14-4.82,13.51.01,12,2.29,22.66,6.77,31.67,4.5,9.04,10.86,16.73,18.92,22.84,7.93,6.03,17.42,10.57,28.19,13.5,10.54,2.87,22.08,4.32,34.29,4.32,27.37,0,49.09-5.63,64.54-16.73,16.09-11.56,24.25-28.01,24.25-48.91,0-10.84-2.12-20.1-6.29-27.53h-.03Z"/>
  <path class="st1" d="M599.81,138.48c-62.58,0-113.49,50.91-113.49,113.48s50.91,113.49,113.49,113.49,113.49-50.91,113.49-113.49-50.91-113.48-113.49-113.48h0ZM554.72,287.47c-1.2,1.3-3.46,2.3-6.79,2.99-3.33.69-8.15,1.03-14.45,1.03-5.36,0-9.71-.16-13.04-.49-3.33-.33-5.89-.83-7.66-1.52-1.78-.69-2.97-1.56-3.59-2.61s-.92-2.26-.92-3.64c0-1.67.42-3.32,1.25-4.95s2.06-3.3,3.7-5c1.63-1.7,3.68-3.53,6.14-5.49,2.68-2.1,5.27-4.26,7.77-6.47s4.73-4.4,6.68-6.57c1.96-2.17,3.5-4.31,4.62-6.41s1.68-4.13,1.68-6.09c0-1.67-.31-3.21-.92-4.62-.62-1.41-1.65-2.55-3.1-3.42s-3.44-1.3-5.98-1.3-4.71.24-6.3.71c-1.59.47-2.95.96-4.08,1.47-1.12.51-2.37.76-3.75.76-.8,0-1.58-.16-2.34-.49s-1.38-.87-1.85-1.63c-.47-.76-.71-1.76-.71-2.99,0-1.88.8-3.64,2.39-5.27s3.91-2.95,6.96-3.97c3.04-1.01,6.67-1.52,10.87-1.52,7.75,0,13.4,1.78,16.95,5.33s5.33,8.37,5.33,14.45c0,3.48-.69,6.78-2.06,9.89-1.38,3.12-3.19,6.05-5.43,8.8-2.25,2.75-4.75,5.43-7.5,8.04-2.75,2.61-5.51,5.18-8.26,7.72-.72.65-1.21,1.14-1.47,1.47-.25.33-.38.71-.38,1.14,0,.87.65,1.3,1.96,1.3,2.68,0,5.87-.02,9.56-.05,3.69-.04,7.28-.05,10.76-.05,1.67,0,3.04.4,4.13,1.2,1.09.8,1.63,2.03,1.63,3.7s-.6,3.26-1.79,4.56h-.01ZM631.62,332.53c-34.32,0-62.24-36.01-62.24-80.27s27.92-80.27,62.24-80.27,62.24,36.01,62.24,80.27-27.92,80.27-62.24,80.27Z"/>
  <g class="st2">
    <g>
      <path class="st1" d="M178.48,129.04l-5.01,7.33c-3.01,4.42-1.3,9.32,3.81,10.9l33.94,10.48c5.11,1.58,9.29-1.51,9.29-6.86v-4.46c-14.92-3.32-29.13-9.12-42.03-17.39h0Z"/>
      <path class="st1" d="M192.33,108.74l-8.15,11.94c11.2,7.09,23.47,12.38,36.33,15.49v-13.92c-9.88-3.41-19.34-7.93-28.18-13.52h0Z"/>
      <g>
        <path class="st1" d="M220.53,86.14v-9h0c0-5.34-2.46-6.1-5.47-1.68l-4.24,6.21c3.11,1.82,6.36,3.31,9.72,4.46h0Z"/>
        <path class="st1" d="M205.09,90.06l-7.03,10.3c7.13,4.44,14.63,8.16,22.46,11.11v-14.7c-5.41-1.51-10.61-3.77-15.43-6.71Z"/>
      </g>
    </g>
  </g>
</svg>